<?xml version="1.0" standalone="no"?>
<!DOCTYPE svg PUBLIC "-//W3C//DTD SVG 20010904//EN"
 "http://www.w3.org/TR/2001/REC-SVG-20010904/DTD/svg10.dtd">
<svg version="1.0" xmlns="http://www.w3.org/2000/svg"
 width="52.000000pt" height="50.000000pt" viewBox="0 0 52.000000 50.000000"
 preserveAspectRatio="xMidYMid meet">

<g transform="translate(0.000000,50.000000) scale(0.100000,-0.100000)"
fill="#000000" stroke="none">
<path d="M132 387 c-23 -25 -31 -100 -12 -112 6 -4 10 11 10 38 0 64 19 77
113 77 100 0 107 -7 107 -109 0 -93 -13 -111 -79 -111 -26 0 -40 -4 -36 -10 3
-5 26 -10 51 -10 70 0 84 21 84 128 0 80 -2 91 -23 110 -20 19 -35 22 -108 22
-76 0 -88 -2 -107 -23z"/>
<path d="M306 363 c-11 -11 -6 -23 9 -23 8 0 15 4 15 9 0 13 -16 22 -24 14z"/>
<path d="M202 334 c-14 -9 -22 -25 -22 -42 l1 -27 15 28 c19 36 70 39 83 5 11
-30 4 -46 -28 -63 l-26 -14 27 -1 c29 0 58 31 58 63 0 10 -11 29 -25 42 -28
29 -51 31 -83 9z"/>
</g>
</svg>
