<svg width="258" height="263" viewBox="0 0 258 263" fill="none" xmlns="http://www.w3.org/2000/svg">
<g filter="url(#filter0_d_5_30)">
<path d="M-45.9473 252.415C-38.0644 242.405 6.25474 155.422 46.966 151.238C80.3671 147.805 91.364 159.763 73.6803 198.423C40.9668 269.942 148.219 217.403 89.4093 284.599C52.8424 326.38 -53.8668 291.688 -45.9473 252.415Z" fill="url(#paint0_linear_5_30)"/>
</g>
<g filter="url(#filter1_d_5_30)">
<path d="M-42.9089 263.056C-40.7476 231.611 3.69866 166.705 34.6429 168.832C62.0552 170.716 43.175 191.629 41.0137 223.074C38.6868 256.928 106.388 224.166 69.8803 285.665C50.8806 312.189 -45.0702 294.501 -42.9089 263.056Z" fill="url(#paint1_linear_5_30)"/>
</g>
<defs>
<filter id="filter0_d_5_30" x="-96.3656" y="0.678329" width="353.738" height="352.894" filterUnits="userSpaceOnUse" color-interpolation-filters="sRGB">
<feFlood flood-opacity="0" result="BackgroundImageFix"/>
<feColorMatrix in="SourceAlpha" type="matrix" values="0 0 0 0 0 0 0 0 0 0 0 0 0 0 0 0 0 0 127 0" result="hardAlpha"/>
<feOffset dx="50" dy="-50"/>
<feGaussianBlur stdDeviation="50"/>
<feComposite in2="hardAlpha" operator="out"/>
<feColorMatrix type="matrix" values="0 0 0 0 0.129412 0 0 0 0 0.576471 0 0 0 0 0.803922 0 0 0 0.25 0"/>
<feBlend mode="normal" in2="BackgroundImageFix" result="effect1_dropShadow_5_30"/>
<feBlend mode="normal" in="SourceGraphic" in2="effect1_dropShadow_5_30" result="shape"/>
</filter>
<filter id="filter1_d_5_30" x="-54.9449" y="168.781" width="137.654" height="151.803" filterUnits="userSpaceOnUse" color-interpolation-filters="sRGB">
<feFlood flood-opacity="0" result="BackgroundImageFix"/>
<feColorMatrix in="SourceAlpha" type="matrix" values="0 0 0 0 0 0 0 0 0 0 0 0 0 0 0 0 0 0 127 0" result="hardAlpha"/>
<feOffset dx="-5" dy="15"/>
<feGaussianBlur stdDeviation="3.5"/>
<feComposite in2="hardAlpha" operator="out"/>
<feColorMatrix type="matrix" values="0 0 0 0 0 0 0 0 0 0 0 0 0 0 0 0 0 0 0.45 0"/>
<feBlend mode="normal" in2="BackgroundImageFix" result="effect1_dropShadow_5_30"/>
<feBlend mode="normal" in="SourceGraphic" in2="effect1_dropShadow_5_30" result="shape"/>
</filter>
<linearGradient id="paint0_linear_5_30" x1="33.8475" y1="297.653" x2="56.4196" y2="158.67" gradientUnits="userSpaceOnUse">
<stop offset="0.458333" stop-color="#37B5F5"/>
<stop offset="1" stop-color="#7DD2FE"/>
</linearGradient>
<linearGradient id="paint1_linear_5_30" x1="16.3426" y1="297.88" x2="25.2568" y2="168.186" gradientUnits="userSpaceOnUse">
<stop offset="0.369792" stop-color="#EC6820"/>
<stop offset="1" stop-color="#FFE6D9"/>
</linearGradient>
</defs>
</svg>
