<svg width="292" height="469" viewBox="0 0 292 469" fill="none" xmlns="http://www.w3.org/2000/svg">
<g filter="url(#filter0_d_5_29)">
<path d="M360 42.7773C350.781 63.6251 299.805 215.312 246.007 258.286C207.703 288.884 204.046 249.324 191 171.5C173.128 64.8858 58.7822 168.809 138.5 31.5C184.075 -47 360 -30.674 360 42.7773Z" fill="url(#paint0_linear_5_29)"/>
</g>
<g filter="url(#filter1_d_5_29)">
<path d="M341 10.7952C341 61.9539 276.137 172 225.702 172C181.024 172 209.32 136.035 209.32 84.8768C209.32 29.799 103.149 90.3846 155.514 -13.2619C183.377 -58.3256 341 -40.3634 341 10.7952Z" fill="url(#paint1_linear_5_29)"/>
</g>
<defs>
<filter id="filter0_d_5_29" x="0.554443" y="-20.3097" width="449.445" height="488.963" filterUnits="userSpaceOnUse" color-interpolation-filters="sRGB">
<feFlood flood-opacity="0" result="BackgroundImageFix"/>
<feColorMatrix in="SourceAlpha" type="matrix" values="0 0 0 0 0 0 0 0 0 0 0 0 0 0 0 0 0 0 127 0" result="hardAlpha"/>
<feOffset dx="-10" dy="100"/>
<feGaussianBlur stdDeviation="50"/>
<feComposite in2="hardAlpha" operator="out"/>
<feColorMatrix type="matrix" values="0 0 0 0 0.129412 0 0 0 0 0.576471 0 0 0 0 0.803922 0 0 0 0.5 0"/>
<feBlend mode="normal" in2="BackgroundImageFix" result="effect1_dropShadow_5_29"/>
<feBlend mode="normal" in="SourceGraphic" in2="effect1_dropShadow_5_29" result="shape"/>
</filter>
<filter id="filter1_d_5_29" x="129" y="-39" width="214" height="233" filterUnits="userSpaceOnUse" color-interpolation-filters="sRGB">
<feFlood flood-opacity="0" result="BackgroundImageFix"/>
<feColorMatrix in="SourceAlpha" type="matrix" values="0 0 0 0 0 0 0 0 0 0 0 0 0 0 0 0 0 0 127 0" result="hardAlpha"/>
<feOffset dx="-5" dy="15"/>
<feGaussianBlur stdDeviation="3.5"/>
<feComposite in2="hardAlpha" operator="out"/>
<feColorMatrix type="matrix" values="0 0 0 0 0 0 0 0 0 0 0 0 0 0 0 0 0 0 0.45 0"/>
<feBlend mode="normal" in2="BackgroundImageFix" result="effect1_dropShadow_5_29"/>
<feBlend mode="normal" in="SourceGraphic" in2="effect1_dropShadow_5_29" result="shape"/>
</filter>
<linearGradient id="paint0_linear_5_29" x1="237.471" y1="-17.6099" x2="237.471" y2="273.421" gradientUnits="userSpaceOnUse">
<stop offset="0.109375" stop-color="#DFF4FF"/>
<stop offset="0.578125" stop-color="#2193CD"/>
</linearGradient>
<linearGradient id="paint1_linear_5_29" x1="241" y1="-39" x2="241" y2="172" gradientUnits="userSpaceOnUse">
<stop stop-color="#FFE6D9"/>
<stop offset="0.671875" stop-color="#EC6820"/>
</linearGradient>
</defs>
</svg>
