<svg width="267" height="338" viewBox="0 0 267 338" fill="none" xmlns="http://www.w3.org/2000/svg">
<g filter="url(#filter0_d_14_77)">
<path d="M306.467 -26.0003C334.967 18.9998 292.467 69.9998 206.967 52.9998C169.967 42.4998 97.4671 192 97.4671 28.4998C92.4671 -97.5002 179.353 -0.000167847 206.967 -0.000167847C234.581 -0.000167847 282.717 -63.5001 306.467 -26.0003Z" fill="url(#paint0_linear_14_77)"/>
</g>
<g filter="url(#filter1_d_14_77)">
<path d="M136.817 -40.7442C109.889 8.79582 179.98 -9.26057 169.207 32.0215C161 63.4745 149.537 160.875 201.008 156.901C240.367 153.863 291.265 99.807 284.698 62.1757C278.574 27.0871 180.215 -120.585 136.817 -40.7442Z" fill="url(#paint1_linear_14_77)" shape-rendering="crispEdges"/>
</g>
<defs>
<filter id="filter0_d_14_77" x="85.2598" y="-37.8488" width="232.028" height="165.304" filterUnits="userSpaceOnUse" color-interpolation-filters="sRGB">
<feFlood flood-opacity="0" result="BackgroundImageFix"/>
<feColorMatrix in="SourceAlpha" type="matrix" values="0 0 0 0 0 0 0 0 0 0 0 0 0 0 0 0 0 0 127 0" result="hardAlpha"/>
<feOffset dx="-5" dy="15"/>
<feGaussianBlur stdDeviation="3.5"/>
<feComposite in2="hardAlpha" operator="out"/>
<feColorMatrix type="matrix" values="0 0 0 0 0 0 0 0 0 0 0 0 0 0 0 0 0 0 0.45 0"/>
<feBlend mode="normal" in2="BackgroundImageFix" result="effect1_dropShadow_14_77"/>
<feBlend mode="normal" in="SourceGraphic" in2="effect1_dropShadow_14_77" result="shape"/>
</filter>
<filter id="filter1_d_14_77" x="0.611694" y="-84.0961" width="354.662" height="421.116" filterUnits="userSpaceOnUse" color-interpolation-filters="sRGB">
<feFlood flood-opacity="0" result="BackgroundImageFix"/>
<feColorMatrix in="SourceAlpha" type="matrix" values="0 0 0 0 0 0 0 0 0 0 0 0 0 0 0 0 0 0 127 0" result="hardAlpha"/>
<feOffset dx="-30" dy="80"/>
<feGaussianBlur stdDeviation="50"/>
<feComposite in2="hardAlpha" operator="out"/>
<feColorMatrix type="matrix" values="0 0 0 0 0.129412 0 0 0 0 0.576471 0 0 0 0 0.803922 0 0 0 0.25 0"/>
<feBlend mode="normal" in2="BackgroundImageFix" result="effect1_dropShadow_14_77"/>
<feBlend mode="normal" in="SourceGraphic" in2="effect1_dropShadow_14_77" result="shape"/>
</filter>
<linearGradient id="paint0_linear_14_77" x1="206.274" y1="-37.8488" x2="206.274" y2="105.455" gradientUnits="userSpaceOnUse">
<stop stop-color="#FFD9C5"/>
<stop offset="0.671875" stop-color="#FF5D05"/>
</linearGradient>
<linearGradient id="paint1_linear_14_77" x1="285.199" y1="52.5132" x2="123.063" y2="39.7528" gradientUnits="userSpaceOnUse">
<stop stop-color="#2193CD" stop-opacity="0.62"/>
<stop offset="1" stop-color="#DFF4FF" stop-opacity="0.78"/>
</linearGradient>
</defs>
</svg>
